HIERARCHY
ROOT Hips
{
  OFFSET 0.000000 0.000000 0.000000
  CHANNELS 6 Xposition Yposition Zposition Zrotation Xrotation Yrotation
  JOINT Spine
  {
    OFFSET 0.000000 5.000000 0.000000
    CHANNELS 3 Zrotation Xrotation Yrotation
    JOINT Spine1
    {
      OFFSET 0.000000 5.000000 0.000000
      CHANNELS 3 Zrotation Xrotation Yrotation
      JOINT Spine2
      {
        OFFSET 0.000000 5.000000 0.000000
        CHANNELS 3 Zrotation Xrotation Yrotation
        JOINT Neck
        {
          OFFSET 0.000000 5.000000 0.000000
          CHANNELS 3 Zrotation Xrotation Yrotation
          JOINT Head
          {
            OFFSET 0.000000 3.000000 0.000000
            CHANNELS 3 Zrotation Xrotation Yrotation
            End Site
            {
              OFFSET 0.0 0.0 5.0
            }
          }
        }
        JOINT LeftShoulder
        {
          OFFSET -3.000000 3.000000 0.000000
          CHANNELS 3 Zrotation Xrotation Yrotation
          JOINT LeftArm
          {
            OFFSET -7.000000 0.000000 0.000000
            CHANNELS 3 Zrotation Xrotation Yrotation
            JOINT LeftForeArm
            {
              OFFSET -12.000000 0.000000 0.000000
              CHANNELS 3 Zrotation Xrotation Yrotation
              JOINT LeftHand
              {
                OFFSET -8.000000 0.000000 0.000000
                CHANNELS 3 Zrotation Xrotation Yrotation
                End Site
                {
                  OFFSET 0.0 0.0 5.0
                }
              }
            }
          }
        }
        JOINT RightShoulder
        {
          OFFSET 3.000000 3.000000 0.000000
          CHANNELS 3 Zrotation Xrotation Yrotation
          JOINT RightArm
          {
            OFFSET 7.000000 0.000000 0.000000
            CHANNELS 3 Zrotation Xrotation Yrotation
            JOINT RightForeArm
            {
              OFFSET 12.000000 0.000000 0.000000
              CHANNELS 3 Zrotation Xrotation Yrotation
              JOINT RightHand
              {
                OFFSET 8.000000 0.000000 0.000000
                CHANNELS 3 Zrotation Xrotation Yrotation
                End Site
                {
                  OFFSET 0.0 0.0 5.0
                }
              }
            }
          }
        }
      }
    }
  }
  JOINT LeftUpLeg
  {
    OFFSET -2.000000 0.000000 0.000000
    CHANNELS 3 Zrotation Xrotation Yrotation
    JOINT LeftLeg
    {
      OFFSET 0.000000 -18.000000 0.000000
      CHANNELS 3 Zrotation Xrotation Yrotation
      JOINT LeftFoot
      {
        OFFSET 0.000000 -18.000000 0.000000
        CHANNELS 3 Zrotation Xrotation Yrotation
        JOINT LeftToeBase
        {
          OFFSET 0.000000 0.000000 8.000000
          CHANNELS 3 Zrotation Xrotation Yrotation
          End Site
          {
            OFFSET 0.0 0.0 5.0
          }
        }
      }
    }
  }
  JOINT RightUpLeg
  {
    OFFSET 2.000000 0.000000 0.000000
    CHANNELS 3 Zrotation Xrotation Yrotation
    JOINT RightLeg
    {
      OFFSET 0.000000 -18.000000 0.000000
      CHANNELS 3 Zrotation Xrotation Yrotation
      JOINT RightFoot
      {
        OFFSET 0.000000 -18.000000 0.000000
        CHANNELS 3 Zrotation Xrotation Yrotation
        JOINT RightToeBase
        {
          OFFSET 0.000000 0.000000 8.000000
          CHANNELS 3 Zrotation Xrotation Yrotation
          End Site
          {
            OFFSET 0.0 0.0 5.0
          }
        }
      }
    }
  }
}
MOTION
Frames: 5
Frame Time: 0.033333
0.181436 0.018986 1.040580 0.000000 0.000000 0.000000 -2.396590 15.784955 -100.362849 31.575139 -30.924236 -98.375113 -35.476114 25.810966 -131.071404 -19.590750 29.484752 -108.404457 -19.590750 29.484752 -108.404457 15.259683 -11.287370 -106.771154 -5.756296 22.176498 -78.137057 2.705576 8.391848 -96.599031 2.705576 8.391848 -96.599031 4.740213 -5.533741 -83.129825 -6.547288 15.215592 -87.685672 -23.263132 34.857391 -104.033838 -2.649049 27.310501 -139.132547 39.419874 -98.894242 -113.037977 63.968201 -69.870654 -6.773754 -27.324528 6.985075 -83.323379 63.654653 -68.833121 -55.389517 110.367031 -29.039646 -68.750571 -2.107625 3.396160 -47.068496 -36.918746 18.480233 -44.382865 0.000000 0.000000 0.000000
0.184398 0.027874 1.041627 0.000000 0.000000 0.000000 -2.809896 15.322193 -100.492951 31.207695 -31.687919 -99.386705 -34.101794 24.704124 -132.749924 -19.038660 26.658900 -111.900873 -19.038660 26.658900 -111.900873 14.621254 -11.541899 -106.954811 -5.988459 22.127611 -78.967479 3.355347 9.491874 -97.804840 3.355347 9.491874 -97.804840 5.924104 -5.374211 -82.637334 -5.131302 15.606718 -86.858631 -23.025577 34.711669 -103.133837 -1.997806 25.845535 -137.523586 41.852245 -99.601754 -110.780995 64.345445 -70.035467 -4.627703 -26.695773 4.646002 -79.103926 65.661193 -66.325115 -51.543085 110.576021 -26.400219 -65.381101 -0.776895 3.899104 -46.084143 -35.674781 18.624343 -43.216060 0.000000 0.000000 0.000000
0.181191 0.025856 1.052881 0.000000 0.000000 0.000000 -11.519150 11.475929 -104.438561 32.814822 -32.984911 -98.669747 -33.333746 26.842941 -132.595876 -18.231443 26.971397 -115.151020 -18.231443 26.971397 -115.151020 11.187257 -4.087429 -107.322378 -2.934385 14.181442 -79.316721 3.354886 9.317144 -97.451159 3.354886 9.317144 -97.451159 6.257387 -4.634686 -84.779665 -4.441054 16.981733 -88.199630 -23.946717 35.839511 -104.016592 -2.159356 27.744025 -142.491662 36.833024 -101.833642 -114.712836 60.846660 -72.768588 -8.069889 -25.394181 6.107585 -81.798648 64.560583 -67.210636 -55.141216 111.619504 -26.859493 -65.159256 -5.329393 3.467534 -46.387215 -40.406956 18.477045 -43.811393 0.000000 0.000000 0.000000
0.178192 0.033008 1.052023 0.000000 0.000000 0.000000 -9.766384 15.816465 -108.935580 32.487311 -33.005006 -101.034196 -32.740530 25.860386 -134.364663 -17.281975 27.524248 -115.478227 -17.281975 27.524248 -115.478227 11.165516 -5.271983 -109.760305 -2.948848 12.191101 -78.568316 3.749215 8.611676 -95.266440 3.749215 8.611676 -95.266440 6.226335 -2.801942 -89.743062 -3.117352 19.079456 -88.778824 -23.576527 37.142155 -103.954697 -1.184859 26.514706 -139.016133 41.077999 -100.669416 -112.189264 61.772472 -73.283981 -3.020572 -28.146924 5.373627 -78.997655 65.478472 -66.321741 -51.208545 93.545833 -3.953084 -62.965761 -4.740992 1.913094 -46.830820 -39.674329 17.056595 -44.734289 0.000000 0.000000 0.000000
0.176391 0.036846 1.053714 0.000000 0.000000 0.000000 -9.072430 16.578980 -109.050662 32.049254 -34.055783 -101.304534 -31.033911 24.398198 -135.312188 -18.543079 27.366412 -113.756152 -18.543079 27.366412 -113.756152 11.130592 -5.960734 -110.109185 -2.720460 12.071817 -78.804470 3.432763 8.764894 -95.285134 3.432763 8.764894 -95.285134 7.337952 -1.368679 -90.118532 -3.399859 19.823556 -87.690761 -23.795669 37.650834 -102.882924 -1.248752 26.974802 -139.296512 40.561127 -100.115398 -112.971984 61.978607 -73.118998 -3.818639 -26.607283 5.191010 -81.037498 64.333343 -67.280085 -53.411091 95.136831 -7.933539 -68.794892 -4.799309 1.356643 -46.872852 -39.724630 16.529716 -44.958739 0.000000 0.000000 0.000000
